# xmcd
#
# Track frame offsets: 
#        150
#        13366
#        24228
#        36783
#        50771
#        65837
#        78241
#        95332
#        105336
#        117149
#        130715
#        146285
#        158582
#        174253
#        191425
#        206422
#        222393
#        235889
#        255010
#        270681
#        283261
#        301618
#        317430
#        332351
#
# Disc length: 4652 seconds
#
# Revision: 0
# Processed by: cddbd v1.5.2PL0 Copyright (c) Steve Scherf et al.
# Submitted via: ExactAudioCopy v1.3
#
DISCID=38122a18
DTITLE=Sonny Terry and Brownie McGhee - John Henry [CD 2)
DYEAR=2017
DGENRE=Blues
TTITLE0=Tell me baby
TTITLE1=Stranger's blues
TTITLE2=I don't worry
TTITLE3=Better day
TTITLE4=Confusion
TTITLE5=Dark road
TTITLE6=Make a little money
TTITLE7=Old Jabo
TTITLE8=Guitar highway
TTITLE9=Heart in sorrow
TTITLE10=Key to the highway
TTITLE11=Po' boy
TTITLE12=Pawn shop
TTITLE13=Sonny's squall
TTITLE14=Red River blues
TTITLE15=Gone gal
TTITLE16=Take this hammer
TTITLE17=Everything I had is gone
TTITLE18=Hold me in your arms
TTITLE19=That's why I'm walking
TTITLE20=Blue feeling
TTITLE21=I know better
TTITLE22=One thing for sure
TTITLE23=The killin' floor
EXTD=
EXTT0=
EXTT1=
EXTT2=
EXTT3=
EXTT4=
EXTT5=
EXTT6=
EXTT7=
EXTT8=
EXTT9=
EXTT10=
EXTT11=
EXTT12=
EXTT13=
EXTT14=
EXTT15=
EXTT16=
EXTT17=
EXTT18=
EXTT19=
EXTT20=
EXTT21=
EXTT22=
EXTT23=
PLAYORDER=
